<svg width="68" height="71" viewBox="0 0 68 71" fill="none" xmlns="http://www.w3.org/2000/svg">
<path fill-rule="evenodd" clip-rule="evenodd" d="M44.4693 2.76469C37.9909 -0.921564 30.0091 -0.921564 23.5307 2.76469L10.4693 10.1967C3.99087 13.883 0 20.6955 0 28.068V42.932C0 50.3045 3.99087 57.117 10.4693 60.8033L23.5307 68.2353C30.0091 71.9216 37.9909 71.9216 44.4693 68.2353L57.5307 60.8033C64.0091 57.117 68 50.3045 68 42.932V28.068C68 20.6955 64.0091 13.883 57.5307 10.1967L44.4693 2.76469ZM41.852 63.0578C41.3604 63.2223 40.8593 63.3497 40.3529 63.4401C39.1182 63.6606 37.8521 63.6606 36.6173 63.4401V7.2909C37.8521 7.07047 39.1181 7.07047 40.3529 7.2909C40.8593 7.38129 41.3604 7.50876 41.852 7.67329C42.6182 7.92978 43.3613 8.27637 44.0647 8.71304L57.8531 17.2722C60.8965 19.1614 62.7428 22.458 62.7428 26.0027V44.7283C62.7428 48.2731 60.8965 51.5696 57.8531 53.4588L44.0647 62.018C43.3613 62.4547 42.6182 62.8013 41.852 63.0578ZM41.852 57.2946V13.4365L55.0633 21.6375C56.585 22.5821 57.5082 24.2304 57.5082 26.0027V44.7283C57.5082 46.5007 56.585 48.149 55.0633 49.0936L41.852 57.2946ZM31.335 7.28983L31.335 63.4391C28.8045 63.8908 26.1426 63.4168 23.8876 62.0169L10.0992 53.4578C7.05585 51.5686 5.20954 48.272 5.20954 44.7272L5.20954 26.0017C5.20954 22.4569 7.05585 19.1603 10.0992 17.2712L23.8876 8.71197C26.1426 7.31214 28.8045 6.8381 31.335 7.28983Z" fill="white"/>
</svg>
