<svg width="271" height="117" viewBox="0 0 271 117" fill="none" xmlns="http://www.w3.org/2000/svg">
<path d="M247.448 76.3267C247.739 74.8299 248.405 73.6866 249.444 72.8966C250.483 72.1066 251.897 71.7117 253.685 71.7117L250.754 88.1137C249.922 88.9452 249.361 89.5273 249.07 89.8599L249.319 90.1094C251.024 88.28 252.936 86.8456 255.057 85.8062C257.219 84.7252 259.381 84.1847 261.543 84.1847C264.328 84.1847 266.553 84.9954 268.216 86.6169C269.92 88.2384 270.773 90.338 270.773 92.9158C270.773 93.5394 270.71 94.2047 270.586 94.9115L267.467 112.498C267.218 113.87 266.594 114.889 265.596 115.554C264.599 116.178 263.185 116.49 261.356 116.49L265.035 95.4728C265.16 94.8491 265.222 94.2878 265.222 93.7889C265.222 90.5875 263.289 88.9868 259.422 88.9868C257.884 88.9868 256.366 89.3194 254.87 89.9846C253.415 90.6499 252.167 91.5438 251.128 92.6663C250.13 93.7473 249.527 94.9115 249.319 96.1588L246.45 112.498C246.201 113.87 245.577 114.889 244.579 115.554C243.582 116.178 242.168 116.49 240.339 116.49L247.448 76.3267Z" fill="white"/>
<path d="M220.837 116.489C217.386 116.489 214.621 115.678 212.542 114.057C210.505 112.394 209.486 110.19 209.486 107.446C209.486 106.823 209.548 106.199 209.673 105.575L211.482 95.4722C211.856 93.2686 212.729 91.3145 214.101 89.6098C215.515 87.9052 217.282 86.5747 219.402 85.6185C221.564 84.6622 223.892 84.1841 226.387 84.1841C229.588 84.1841 232.208 84.8701 234.245 86.2421C236.282 87.5726 237.301 89.3188 237.301 91.4808C237.301 92.7281 236.823 93.7467 235.867 94.5367C234.952 95.3266 233.746 95.7216 232.249 95.7216C232.332 95.1395 232.374 94.7238 232.374 94.4743C232.374 92.8112 231.771 91.4808 230.565 90.483C229.36 89.4851 227.738 88.9862 225.701 88.9862C223.414 88.9862 221.439 89.6098 219.776 90.8571C218.113 92.0629 217.136 93.6428 216.845 95.5969L215.161 105.326C215.12 105.575 215.099 105.929 215.099 106.386C215.099 107.966 215.702 109.255 216.908 110.253C218.155 111.209 219.797 111.687 221.834 111.687C224.121 111.687 226.096 111.063 227.759 109.816C229.422 108.569 230.42 106.968 230.753 105.014C231.917 105.014 232.852 105.284 233.559 105.825C234.266 106.324 234.619 106.989 234.619 107.82C234.619 109.525 234.037 111.043 232.873 112.373C231.709 113.662 230.067 114.681 227.946 115.429C225.867 116.136 223.497 116.489 220.837 116.489Z" fill="white"/>
<path d="M188.317 116.489C184.907 116.489 182.163 115.637 180.085 113.932C178.006 112.186 176.966 109.92 176.966 107.134C176.966 106.469 177.029 105.804 177.153 105.139L178.775 95.9087C179.399 92.4163 181.103 89.5891 183.889 87.4271C186.716 85.2651 190.084 84.1841 193.992 84.1841C196.154 84.1841 198.066 84.5998 199.73 85.4314C201.393 86.2629 202.682 87.4063 203.596 88.8615C204.552 90.3166 205.031 91.9589 205.031 93.7883C205.031 94.4535 204.968 95.098 204.844 95.7216L204.157 99.713C204.033 100.378 203.679 100.939 203.097 101.397C202.515 101.854 201.892 102.083 201.226 102.083H183.016L182.517 104.889C182.392 105.513 182.33 106.074 182.33 106.573C182.33 108.361 182.912 109.712 184.076 110.627C185.24 111.5 186.924 111.937 189.127 111.937C191.581 111.937 193.576 111.396 195.115 110.315C196.694 109.192 197.651 107.654 197.983 105.7C199.147 105.617 200.083 105.825 200.79 106.324C201.538 106.781 201.912 107.446 201.912 108.319C201.912 109.733 201.268 111.063 199.979 112.311C198.732 113.558 197.048 114.577 194.927 115.367C192.849 116.115 190.645 116.489 188.317 116.489ZM199.48 97.842L199.854 95.7216C199.937 95.3474 199.979 94.8277 199.979 94.1625C199.979 92.4163 199.397 91.065 198.233 90.1088C197.069 89.1525 195.406 88.6744 193.244 88.6744C190.915 88.6744 188.899 89.3396 187.194 90.67C185.531 91.9589 184.512 93.6428 184.138 95.7216L183.764 97.842H199.48Z" fill="white"/>
<path d="M163.405 116.489C161.118 116.489 159.31 115.865 157.979 114.618C156.69 113.371 156.046 111.645 156.046 109.442C156.046 108.776 156.108 108.07 156.233 107.321L159.413 89.1107H153.614C153.863 87.6971 154.341 86.6161 155.048 85.8677C155.796 85.1193 156.732 84.7451 157.854 84.7451H160.224L161.284 78.8205C161.783 76.1596 163.821 74.8291 167.396 74.8291L165.588 84.7451H173.882C173.383 87.6555 171.824 89.1107 169.205 89.1107H164.902L161.721 107.134C161.596 107.758 161.534 108.298 161.534 108.756C161.534 109.795 161.804 110.543 162.345 111.001C162.927 111.458 163.841 111.687 165.089 111.687C166.502 111.687 167.957 111.313 169.454 110.564C169.745 110.98 169.891 111.5 169.891 112.123C169.891 113.371 169.267 114.41 168.02 115.242C166.773 116.073 165.234 116.489 163.405 116.489Z" fill="white"/>
<path d="M101.102 115.928V71.0251H137.274C138.854 71.0251 140.309 71.4201 141.639 72.2101C142.97 73 144.03 74.0602 144.82 75.3907C145.61 76.6796 146.005 78.114 146.005 79.6939V107.259C146.005 108.839 145.61 110.294 144.82 111.625C144.03 112.914 142.97 113.953 141.639 114.743C140.309 115.533 138.854 115.928 137.274 115.928H101.102ZM110.02 107.633H136.9C137.107 107.633 137.295 107.571 137.461 107.446C137.627 107.28 137.71 107.093 137.71 106.885V80.0681C137.71 79.8602 137.627 79.6939 137.461 79.5692C137.295 79.4029 137.107 79.3197 136.9 79.3197H110.02C109.812 79.3197 109.625 79.4029 109.459 79.5692C109.334 79.6939 109.272 79.8602 109.272 80.0681V106.885C109.272 107.093 109.334 107.28 109.459 107.446C109.625 107.571 109.812 107.633 110.02 107.633Z" fill="white"/>
<path d="M57.876 115.928C56.2961 115.928 54.8409 115.533 53.5105 114.743C52.2216 113.953 51.1822 112.914 50.3922 111.625C49.6023 110.294 49.2073 108.839 49.2073 107.259V79.6939C49.2073 78.114 49.6023 76.6796 50.3922 75.3907C51.1822 74.0602 52.2216 73 53.5105 72.2101C54.8409 71.4201 56.2961 71.0251 57.876 71.0251H85.4414C87.0213 71.0251 88.4557 71.4201 89.7446 72.2101C91.075 73 92.1352 74.0602 92.9252 75.3907C93.7152 76.6796 94.1101 78.114 94.1101 79.6939V107.259C94.1101 108.839 93.7152 110.294 92.9252 111.625C92.1352 112.914 91.075 113.953 89.7446 114.743C88.4557 115.533 87.0213 115.928 85.4414 115.928H57.876ZM58.1878 107.633H85.0048C85.2127 107.633 85.3998 107.571 85.5661 107.446C85.7324 107.28 85.8156 107.093 85.8156 106.885V80.0681C85.8156 79.8602 85.7324 79.6939 85.5661 79.5692C85.3998 79.4029 85.2127 79.3197 85.0048 79.3197H58.1878C57.98 79.3197 57.7929 79.4029 57.6266 79.5692C57.5018 79.6939 57.4395 79.8602 57.4395 80.0681V106.885C57.4395 107.093 57.5018 107.28 57.6266 107.446C57.7929 107.571 57.98 107.633 58.1878 107.633Z" fill="white"/>
<path d="M0 115.928V71.0874H36.1717C37.7517 71.0874 39.2068 71.4824 40.5373 72.2723C41.8677 73.0623 42.928 74.1225 43.7179 75.453C44.5079 76.7418 44.9028 78.1762 44.9028 79.7561V91.855C44.9028 93.4349 44.5079 94.8901 43.7179 96.2205C42.928 97.551 41.8677 98.6112 40.5373 99.4011C39.2068 100.15 37.7517 100.524 36.1717 100.524L8.23219 100.586V115.928H0ZM8.98057 92.2292H35.7975C36.0054 92.2292 36.1925 92.1668 36.3588 92.0421C36.5251 91.9173 36.6083 91.751 36.6083 91.5431V80.068C36.6083 79.8601 36.5251 79.6938 36.3588 79.5691C36.1925 79.4027 36.0054 79.3196 35.7975 79.3196H8.98057C8.77269 79.3196 8.58559 79.4027 8.41928 79.5691C8.29455 79.6938 8.23219 79.8601 8.23219 80.068V91.5431C8.23219 91.751 8.29455 91.9173 8.41928 92.0421C8.58559 92.1668 8.77269 92.2292 8.98057 92.2292Z" fill="white"/>
<path fill-rule="evenodd" clip-rule="evenodd" d="M217.469 2.76469C210.991 -0.921564 203.009 -0.921564 196.531 2.76469L183.469 10.1967C176.991 13.883 173 20.6955 173 28.068V42.932C173 50.3045 176.991 57.117 183.469 60.8033L196.531 68.2353C203.009 71.9216 210.991 71.9216 217.469 68.2353L230.531 60.8033C237.009 57.117 241 50.3045 241 42.932V28.068C241 20.6955 237.009 13.883 230.531 10.1967L217.469 2.76469ZM214.852 63.0578C214.36 63.2223 213.859 63.3497 213.353 63.4401C212.118 63.6606 210.852 63.6606 209.617 63.4401V7.2909C210.852 7.07047 212.118 7.07047 213.353 7.2909C213.859 7.38129 214.36 7.50876 214.852 7.67329C215.618 7.92978 216.361 8.27637 217.065 8.71304L230.853 17.2722C233.896 19.1614 235.743 22.458 235.743 26.0027V44.7283C235.743 48.2731 233.896 51.5696 230.853 53.4588L217.065 62.018C216.361 62.4547 215.618 62.8013 214.852 63.0578ZM214.852 57.2946V13.4365L228.063 21.6375C229.585 22.5821 230.508 24.2304 230.508 26.0027V44.7283C230.508 46.5007 229.585 48.149 228.063 49.0936L214.852 57.2946ZM204.335 7.28983L204.335 63.4391C201.804 63.8908 199.143 63.4168 196.888 62.0169L183.099 53.4578C180.056 51.5686 178.21 48.272 178.21 44.7272L178.21 26.0017C178.21 22.4569 180.056 19.1603 183.099 17.2712L196.888 8.71197C199.143 7.31214 201.804 6.8381 204.335 7.28983Z" fill="white"/>
</svg>
